<?xml version="1.0" standalone="no"?><!DOCTYPE svg PUBLIC "-//W3C//DTD SVG 1.1//EN" "http://www.w3.org/Graphics/SVG/1.1/DTD/svg11.dtd"><svg xmlns:xlink="http://www.w3.org/1999/xlink" version="1.1" class="highcharts-root" style="font-family:&quot;Lucida Grande&quot;, &quot;Lucida Sans Unicode&quot;, Arial, Helvetica, sans-serif;font-size:12px;" xmlns="http://www.w3.org/2000/svg" width="600" height="400" viewBox="0 0 600 400"><desc>Created with Highcharts 6.1.0</desc><defs><clipPath id="highcharts-s8tpgvq-17"><rect x="0" y="0" width="421" height="269" fill="none"></rect></clipPath></defs><rect fill="#ffffff" class="highcharts-background" x="0" y="0" width="600" height="400" rx="0" ry="0"></rect><rect fill="none" class="highcharts-plot-background" x="81" y="53" width="421" height="269"></rect><g class="highcharts-pane-group"></g><g class="highcharts-grid highcharts-xaxis-grid "><path fill="none" class="highcharts-grid-line" d="M 115.5 53 L 115.5 322" opacity="1"></path><path fill="none" class="highcharts-grid-line" d="M 150.5 53 L 150.5 322" opacity="1"></path><path fill="none" class="highcharts-grid-line" d="M 185.5 53 L 185.5 322" opacity="1"></path><path fill="none" class="highcharts-grid-line" d="M 220.5 53 L 220.5 322" opacity="1"></path><path fill="none" class="highcharts-grid-line" d="M 255.5 53 L 255.5 322" opacity="1"></path><path fill="none" class="highcharts-grid-line" d="M 291.5 53 L 291.5 322" opacity="1"></path><path fill="none" class="highcharts-grid-line" d="M 326.5 53 L 326.5 322" opacity="1"></path><path fill="none" class="highcharts-grid-line" d="M 361.5 53 L 361.5 322" opacity="1"></path><path fill="none" class="highcharts-grid-line" d="M 396.5 53 L 396.5 322" opacity="1"></path><path fill="none" class="highcharts-grid-line" d="M 431.5 53 L 431.5 322" opacity="1"></path><path fill="none" class="highcharts-grid-line" d="M 466.5 53 L 466.5 322" opacity="1"></path><path fill="none" class="highcharts-grid-line" d="M 501.5 53 L 501.5 322" opacity="1"></path><path fill="none" class="highcharts-grid-line" d="M 80.5 53 L 80.5 322" opacity="1"></path></g><g class="highcharts-grid highcharts-yaxis-grid "><path fill="none" stroke="#e6e6e6" stroke-width="1" class="highcharts-grid-line" d="M 81 322.5 L 502 322.5" opacity="1"></path><path fill="none" stroke="#e6e6e6" stroke-width="1" class="highcharts-grid-line" d="M 81 255.5 L 502 255.5" opacity="1"></path><path fill="none" stroke="#e6e6e6" stroke-width="1" class="highcharts-grid-line" d="M 81 188.5 L 502 188.5" opacity="1"></path><path fill="none" stroke="#e6e6e6" stroke-width="1" class="highcharts-grid-line" d="M 81 120.5 L 502 120.5" opacity="1"></path><path fill="none" stroke="#e6e6e6" stroke-width="1" class="highcharts-grid-line" d="M 81 52.5 L 502 52.5" opacity="1"></path></g><g class="highcharts-grid highcharts-yaxis-grid "><path fill="none" stroke="#e6e6e6" stroke-width="1" class="highcharts-grid-line" d="M 81 322.5 L 502 322.5" opacity="1"></path><path fill="none" stroke="#e6e6e6" stroke-width="1" class="highcharts-grid-line" d="M 81 255.5 L 502 255.5" opacity="1"></path><path fill="none" stroke="#e6e6e6" stroke-width="1" class="highcharts-grid-line" d="M 81 188.5 L 502 188.5" opacity="1"></path><path fill="none" stroke="#e6e6e6" stroke-width="1" class="highcharts-grid-line" d="M 81 120.5 L 502 120.5" opacity="1"></path><path fill="none" stroke="#e6e6e6" stroke-width="1" class="highcharts-grid-line" d="M 81 52.5 L 502 52.5" opacity="1"></path></g><rect fill="none" class="highcharts-plot-border" x="81" y="53" width="421" height="269"></rect><g class="highcharts-axis highcharts-xaxis "><path fill="none" class="highcharts-tick" stroke="#ccd6eb" stroke-width="1" d="M 115.5 322 L 115.5 332" opacity="1"></path><path fill="none" class="highcharts-tick" stroke="#ccd6eb" stroke-width="1" d="M 150.5 322 L 150.5 332" opacity="1"></path><path fill="none" class="highcharts-tick" stroke="#ccd6eb" stroke-width="1" d="M 185.5 322 L 185.5 332" opacity="1"></path><path fill="none" class="highcharts-tick" stroke="#ccd6eb" stroke-width="1" d="M 220.5 322 L 220.5 332" opacity="1"></path><path fill="none" class="highcharts-tick" stroke="#ccd6eb" stroke-width="1" d="M 255.5 322 L 255.5 332" opacity="1"></path><path fill="none" class="highcharts-tick" stroke="#ccd6eb" stroke-width="1" d="M 291.5 322 L 291.5 332" opacity="1"></path><path fill="none" class="highcharts-tick" stroke="#ccd6eb" stroke-width="1" d="M 326.5 322 L 326.5 332" opacity="1"></path><path fill="none" class="highcharts-tick" stroke="#ccd6eb" stroke-width="1" d="M 361.5 322 L 361.5 332" opacity="1"></path><path fill="none" class="highcharts-tick" stroke="#ccd6eb" stroke-width="1" d="M 396.5 322 L 396.5 332" opacity="1"></path><path fill="none" class="highcharts-tick" stroke="#ccd6eb" stroke-width="1" d="M 431.5 322 L 431.5 332" opacity="1"></path><path fill="none" class="highcharts-tick" stroke="#ccd6eb" stroke-width="1" d="M 466.5 322 L 466.5 332" opacity="1"></path><path fill="none" class="highcharts-tick" stroke="#ccd6eb" stroke-width="1" d="M 502.5 322 L 502.5 332" opacity="1"></path><path fill="none" class="highcharts-tick" stroke="#ccd6eb" stroke-width="1" d="M 80.5 322 L 80.5 332" opacity="1"></path><path fill="none" class="highcharts-axis-line" stroke="#ccd6eb" stroke-width="1" d="M 81 322.5 L 502 322.5"></path></g><g class="highcharts-axis highcharts-yaxis "><text x="25.578125" text-anchor="middle" transform="translate(0,0) rotate(270 25.578125 187.5)" class="highcharts-axis-title" style="color:#434348;fill:#434348;" y="187.5"><tspan>Temperature</tspan></text><path fill="none" class="highcharts-axis-line" d="M 81 53 L 81 322"></path></g><g class="highcharts-axis highcharts-yaxis "><text x="573.875" text-anchor="middle" transform="translate(0,0) rotate(90 573.875 187.5)" class="highcharts-axis-title" style="color:#7cb5ec;fill:#7cb5ec;" y="187.5"><tspan>Rainfall</tspan></text><path fill="none" class="highcharts-axis-line" d="M 502 53 L 502 322"></path></g><g class="highcharts-series-group"><g class="highcharts-series highcharts-series-0 highcharts-column-series highcharts-color-0 " transform="translate(81,53) scale(1 1)" clip-path="url(#highcharts-s8tpgvq-17)"><rect x="8.5" y="213.5" width="17" height="56" fill="#7cb5ec" stroke="#ffffff" stroke-width="1" class="highcharts-point highcharts-color-0"></rect><rect x="43.5" y="189.5" width="17" height="80" fill="#7cb5ec" stroke="#ffffff" stroke-width="1" class="highcharts-point highcharts-color-0"></rect><rect x="78.5" y="150.5" width="17" height="119" fill="#7cb5ec" stroke="#ffffff" stroke-width="1" class="highcharts-point highcharts-color-0"></rect><rect x="113.5" y="124.5" width="17" height="145" fill="#7cb5ec" stroke="#ffffff" stroke-width="1" class="highcharts-point highcharts-color-0"></rect><rect x="148.5" y="108.5" width="17" height="161" fill="#7cb5ec" stroke="#ffffff" stroke-width="1" class="highcharts-point highcharts-color-0"></rect><rect x="184.5" y="72.5" width="17" height="197" fill="#7cb5ec" stroke="#ffffff" stroke-width="1" class="highcharts-point highcharts-color-0"></rect><rect x="219.5" y="117.5" width="17" height="152" fill="#7cb5ec" stroke="#ffffff" stroke-width="1" class="highcharts-point highcharts-color-0"></rect><rect x="254.5" y="103.5" width="17" height="166" fill="#7cb5ec" stroke="#ffffff" stroke-width="1" class="highcharts-point highcharts-color-0"></rect><rect x="289.5" y="26.5" width="17" height="243" fill="#7cb5ec" stroke="#ffffff" stroke-width="1" class="highcharts-point highcharts-color-0"></rect><rect x="324.5" y="51.5" width="17" height="218" fill="#7cb5ec" stroke="#ffffff" stroke-width="1" class="highcharts-point highcharts-color-0"></rect><rect x="359.5" y="162.5" width="17" height="107" fill="#7cb5ec" stroke="#ffffff" stroke-width="1" class="highcharts-point highcharts-color-0"></rect><rect x="394.5" y="208.5" width="17" height="61" fill="#7cb5ec" stroke="#ffffff" stroke-width="1" class="highcharts-point highcharts-color-0"></rect></g><g class="highcharts-markers highcharts-series-0 highcharts-column-series highcharts-color-0 " transform="translate(81,53) scale(1 1)" clip-path="none"></g><g class="highcharts-series highcharts-series-1 highcharts-errorbar-series " transform="translate(81,53) scale(1 1)" clip-path="url(#highcharts-s8tpgvq-17)"><g class="highcharts-point"><path fill="none" class="highcharts-boxplot-stem" stroke="#000000" stroke-width="1" d="M 17.5 215 L 17.5 211 M 17.5 215 L 17.5 215"></path><path fill="none" class="highcharts-boxplot-whisker" stroke="#000000" stroke-width="1" d="M 13 211.5 L 22 211.5 M 13 215.5 L 22 215.5"></path><path fill="none" class="highcharts-boxplot-median" stroke="#000000" stroke-width="2" d="M 0 0"></path></g><g class="highcharts-point"><path fill="none" class="highcharts-boxplot-stem" stroke="#000000" stroke-width="1" d="M 52.5 192 L 52.5 187 M 52.5 192 L 52.5 192"></path><path fill="none" class="highcharts-boxplot-whisker" stroke="#000000" stroke-width="1" d="M 48 187.5 L 57 187.5 M 48 192.5 L 57 192.5"></path><path fill="none" class="highcharts-boxplot-median" stroke="#000000" stroke-width="2" d="M 0 0"></path></g><g class="highcharts-point"><path fill="none" class="highcharts-boxplot-stem" stroke="#000000" stroke-width="1" d="M 87.5 165 L 87.5 145 M 87.5 165 L 87.5 165"></path><path fill="none" class="highcharts-boxplot-whisker" stroke="#000000" stroke-width="1" d="M 83 145.5 L 92 145.5 M 83 165.5 L 92 165.5"></path><path fill="none" class="highcharts-boxplot-median" stroke="#000000" stroke-width="2" d="M 0 0"></path></g><g class="highcharts-point"><path fill="none" class="highcharts-boxplot-stem" stroke="#000000" stroke-width="1" d="M 122.5 125 L 122.5 116 M 122.5 125 L 122.5 125"></path><path fill="none" class="highcharts-boxplot-whisker" stroke="#000000" stroke-width="1" d="M 118 116.5 L 127 116.5 M 118 125.5 L 127 125.5"></path><path fill="none" class="highcharts-boxplot-median" stroke="#000000" stroke-width="2" d="M 0 0"></path></g><g class="highcharts-point"><path fill="none" class="highcharts-boxplot-stem" stroke="#000000" stroke-width="1" d="M 157.5 112 L 157.5 100 M 157.5 112 L 157.5 112"></path><path fill="none" class="highcharts-boxplot-whisker" stroke="#000000" stroke-width="1" d="M 153 100.5 L 162 100.5 M 153 112.5 L 162 112.5"></path><path fill="none" class="highcharts-boxplot-median" stroke="#000000" stroke-width="2" d="M 0 0"></path></g><g class="highcharts-point"><path fill="none" class="highcharts-boxplot-stem" stroke="#000000" stroke-width="1" d="M 193.5 77 L 193.5 68 M 193.5 77 L 193.5 77"></path><path fill="none" class="highcharts-boxplot-whisker" stroke="#000000" stroke-width="1" d="M 189 68.5 L 198 68.5 M 189 77.5 L 198 77.5"></path><path fill="none" class="highcharts-boxplot-median" stroke="#000000" stroke-width="2" d="M 0 0"></path></g><g class="highcharts-point"><path fill="none" class="highcharts-boxplot-stem" stroke="#000000" stroke-width="1" d="M 228.5 117 L 228.5 108 M 228.5 117 L 228.5 117"></path><path fill="none" class="highcharts-boxplot-whisker" stroke="#000000" stroke-width="1" d="M 224 108.5 L 233 108.5 M 224 117.5 L 233 117.5"></path><path fill="none" class="highcharts-boxplot-median" stroke="#000000" stroke-width="2" d="M 0 0"></path></g><g class="highcharts-point"><path fill="none" class="highcharts-boxplot-stem" stroke="#000000" stroke-width="1" d="M 263.5 109 L 263.5 101 M 263.5 109 L 263.5 109"></path><path fill="none" class="highcharts-boxplot-whisker" stroke="#000000" stroke-width="1" d="M 259 101.5 L 268 101.5 M 259 109.5 L 268 109.5"></path><path fill="none" class="highcharts-boxplot-median" stroke="#000000" stroke-width="2" d="M 0 0"></path></g><g class="highcharts-point"><path fill="none" class="highcharts-boxplot-stem" stroke="#000000" stroke-width="1" d="M 298.5 40 L 298.5 22 M 298.5 40 L 298.5 40"></path><path fill="none" class="highcharts-boxplot-whisker" stroke="#000000" stroke-width="1" d="M 294 22.5 L 303 22.5 M 294 40.5 L 303 40.5"></path><path fill="none" class="highcharts-boxplot-median" stroke="#000000" stroke-width="2" d="M 0 0"></path></g><g class="highcharts-point"><path fill="none" class="highcharts-boxplot-stem" stroke="#000000" stroke-width="1" d="M 333.5 57 L 333.5 45 M 333.5 57 L 333.5 57"></path><path fill="none" class="highcharts-boxplot-whisker" stroke="#000000" stroke-width="1" d="M 329 45.5 L 338 45.5 M 329 57.5 L 338 57.5"></path><path fill="none" class="highcharts-boxplot-median" stroke="#000000" stroke-width="2" d="M 0 0"></path></g><g class="highcharts-point"><path fill="none" class="highcharts-boxplot-stem" stroke="#000000" stroke-width="1" d="M 368.5 162 L 368.5 145 M 368.5 162 L 368.5 162"></path><path fill="none" class="highcharts-boxplot-whisker" stroke="#000000" stroke-width="1" d="M 364 145.5 L 373 145.5 M 364 162.5 L 373 162.5"></path><path fill="none" class="highcharts-boxplot-median" stroke="#000000" stroke-width="2" d="M 0 0"></path></g><g class="highcharts-point"><path fill="none" class="highcharts-boxplot-stem" stroke="#000000" stroke-width="1" d="M 403.5 210 L 403.5 206 M 403.5 210 L 403.5 210"></path><path fill="none" class="highcharts-boxplot-whisker" stroke="#000000" stroke-width="1" d="M 399 206.5 L 408 206.5 M 399 210.5 L 408 210.5"></path><path fill="none" class="highcharts-boxplot-median" stroke="#000000" stroke-width="2" d="M 0 0"></path></g></g><g class="highcharts-markers highcharts-series-1 highcharts-errorbar-series " transform="translate(81,53) scale(1 1)" clip-path="none"></g><g class="highcharts-series highcharts-series-2 highcharts-spline-series highcharts-color-1 " transform="translate(81,53) scale(1 1)" clip-path="url(#highcharts-s8tpgvq-17)"><path fill="none" d="M 17.541666666667 210.15625 C 17.541666666667 210.15625 38.5916666666668 210.996875 52.625 210.996875 C 66.6583333333332 210.996875 73.6749999999998 201.9181249999993 87.708333333333 189.140625 C 101.74166666666778 176.3631249999993 108.75833333333522 161.73625000000143 122.79166666667 147.109375 C 136.825000000002 132.48250000000144 143.841666666668 127.77499999999999 157.875 116.00625 C 171.908333333332 104.2375 178.924999999998 100.0343749999983 192.95833333333 88.265625 C 206.99166666666602 76.49687499999831 214.00833333333398 65.5687500000012 228.04166666667 57.162499999999994 C 242.075000000002 48.7562500000012 249.091666666668 46.234375 263.125 46.234375 C 277.15833333333205 46.234375 284.174999999998 59.348125000001964 298.20833333333 73.134375 C 312.241666666666 86.92062500000196 319.258333333334 99.36187499999778 333.29166666667 115.165625 C 347.325000000002 130.96937499999777 354.34166666666795 137.52624999999998 368.375 152.153125 C 382.40833333333205 166.77999999999997 403.45833333333 188.3 403.45833333333 188.3" class="highcharts-graph" stroke="#434348" stroke-width="2" stroke-linejoin="round" stroke-linecap="round"></path></g><g class="highcharts-markers highcharts-series-2 highcharts-spline-series highcharts-color-1 " transform="translate(81,53) scale(1 1)" clip-path="none"><path fill="#434348" d="M 21 210 A 4 4 0 1 1 20.99999800000017 209.99600000066667 Z" class="highcharts-point highcharts-color-1"></path><path fill="#434348" d="M 56 211 A 4 4 0 1 1 55.99999800000017 210.99600000066667 Z" class="highcharts-point highcharts-color-1"></path><path fill="#434348" d="M 91 189 A 4 4 0 1 1 90.99999800000016 188.99600000066667 Z" class="highcharts-point highcharts-color-1"></path><path fill="#434348" d="M 126 147 A 4 4 0 1 1 125.99999800000016 146.99600000066667 Z" class="highcharts-point highcharts-color-1"></path><path fill="#434348" d="M 161 116 A 4 4 0 1 1 160.99999800000018 115.99600000066667 Z" class="highcharts-point highcharts-color-1"></path><path fill="#434348" d="M 196 88 A 4 4 0 1 1 195.99999800000018 87.99600000066667 Z" class="highcharts-point highcharts-color-1"></path><path fill="#434348" d="M 232 57 A 4 4 0 1 1 231.99999800000018 56.99600000066666 Z" class="highcharts-point highcharts-color-1"></path><path fill="#434348" d="M 267 46 A 4 4 0 1 1 266.9999980000002 45.99600000066666 Z" class="highcharts-point highcharts-color-1"></path><path fill="#434348" d="M 302 73 A 4 4 0 1 1 301.9999980000002 72.99600000066667 Z" class="highcharts-point highcharts-color-1"></path><path fill="#434348" d="M 337 115 A 4 4 0 1 1 336.9999980000002 114.99600000066667 Z" class="highcharts-point highcharts-color-1"></path><path fill="#434348" d="M 372 152 A 4 4 0 1 1 371.9999980000002 151.99600000066667 Z" class="highcharts-point highcharts-color-1"></path><path fill="#434348" d="M 407 188 A 4 4 0 1 1 406.9999980000002 187.99600000066667 Z" class="highcharts-point highcharts-color-1"></path></g><g class="highcharts-series highcharts-series-3 highcharts-errorbar-series " transform="translate(81,53) scale(1 1)" clip-path="url(#highcharts-s8tpgvq-17)"><g class="highcharts-point"><path fill="none" class="highcharts-boxplot-stem" stroke="#000000" stroke-width="1" d="M 17.5 218 L 17.5 201 M 17.5 218 L 17.5 218"></path><path fill="none" class="highcharts-boxplot-whisker" stroke="#000000" stroke-width="1" d="M 13 201.5 L 22 201.5 M 13 218.5 L 22 218.5"></path><path fill="none" class="highcharts-boxplot-median" stroke="#000000" stroke-width="2" d="M 0 0"></path></g><g class="highcharts-point"><path fill="none" class="highcharts-boxplot-stem" stroke="#000000" stroke-width="1" d="M 52.5 219 L 52.5 205 M 52.5 219 L 52.5 219"></path><path fill="none" class="highcharts-boxplot-whisker" stroke="#000000" stroke-width="1" d="M 48 205.5 L 57 205.5 M 48 219.5 L 57 219.5"></path><path fill="none" class="highcharts-boxplot-median" stroke="#000000" stroke-width="2" d="M 0 0"></path></g><g class="highcharts-point"><path fill="none" class="highcharts-boxplot-stem" stroke="#000000" stroke-width="1" d="M 87.5 189 L 87.5 181 M 87.5 189 L 87.5 189"></path><path fill="none" class="highcharts-boxplot-whisker" stroke="#000000" stroke-width="1" d="M 83 181.5 L 92 181.5 M 83 189.5 L 92 189.5"></path><path fill="none" class="highcharts-boxplot-median" stroke="#000000" stroke-width="2" d="M 0 0"></path></g><g class="highcharts-point"><path fill="none" class="highcharts-boxplot-stem" stroke="#000000" stroke-width="1" d="M 122.5 150 L 122.5 135 M 122.5 150 L 122.5 150"></path><path fill="none" class="highcharts-boxplot-whisker" stroke="#000000" stroke-width="1" d="M 118 135.5 L 127 135.5 M 118 150.5 L 127 150.5"></path><path fill="none" class="highcharts-boxplot-median" stroke="#000000" stroke-width="2" d="M 0 0"></path></g><g class="highcharts-point"><path fill="none" class="highcharts-boxplot-stem" stroke="#000000" stroke-width="1" d="M 157.5 117 L 157.5 100 M 157.5 117 L 157.5 117"></path><path fill="none" class="highcharts-boxplot-whisker" stroke="#000000" stroke-width="1" d="M 153 100.5 L 162 100.5 M 153 117.5 L 162 117.5"></path><path fill="none" class="highcharts-boxplot-median" stroke="#000000" stroke-width="2" d="M 0 0"></path></g><g class="highcharts-point"><path fill="none" class="highcharts-boxplot-stem" stroke="#000000" stroke-width="1" d="M 193.5 92 L 193.5 67 M 193.5 92 L 193.5 92"></path><path fill="none" class="highcharts-boxplot-whisker" stroke="#000000" stroke-width="1" d="M 189 67.5 L 198 67.5 M 189 92.5 L 198 92.5"></path><path fill="none" class="highcharts-boxplot-median" stroke="#000000" stroke-width="2" d="M 0 0"></path></g><g class="highcharts-point"><path fill="none" class="highcharts-boxplot-stem" stroke="#000000" stroke-width="1" d="M 228.5 73 L 228.5 56 M 228.5 73 L 228.5 73"></path><path fill="none" class="highcharts-boxplot-whisker" stroke="#000000" stroke-width="1" d="M 224 56.5 L 233 56.5 M 224 73.5 L 233 73.5"></path><path fill="none" class="highcharts-boxplot-median" stroke="#000000" stroke-width="2" d="M 0 0"></path></g><g class="highcharts-point"><path fill="none" class="highcharts-boxplot-stem" stroke="#000000" stroke-width="1" d="M 263.5 49 L 263.5 35 M 263.5 49 L 263.5 49"></path><path fill="none" class="highcharts-boxplot-whisker" stroke="#000000" stroke-width="1" d="M 259 35.5 L 268 35.5 M 259 49.5 L 268 49.5"></path><path fill="none" class="highcharts-boxplot-median" stroke="#000000" stroke-width="2" d="M 0 0"></path></g><g class="highcharts-point"><path fill="none" class="highcharts-boxplot-stem" stroke="#000000" stroke-width="1" d="M 298.5 73 L 298.5 68 M 298.5 73 L 298.5 73"></path><path fill="none" class="highcharts-boxplot-whisker" stroke="#000000" stroke-width="1" d="M 294 68.5 L 303 68.5 M 294 73.5 L 303 73.5"></path><path fill="none" class="highcharts-boxplot-median" stroke="#000000" stroke-width="2" d="M 0 0"></path></g><g class="highcharts-point"><path fill="none" class="highcharts-boxplot-stem" stroke="#000000" stroke-width="1" d="M 333.5 117 L 333.5 91 M 333.5 117 L 333.5 117"></path><path fill="none" class="highcharts-boxplot-whisker" stroke="#000000" stroke-width="1" d="M 329 91.5 L 338 91.5 M 329 117.5 L 338 117.5"></path><path fill="none" class="highcharts-boxplot-median" stroke="#000000" stroke-width="2" d="M 0 0"></path></g><g class="highcharts-point"><path fill="none" class="highcharts-boxplot-stem" stroke="#000000" stroke-width="1" d="M 368.5 160 L 368.5 151 M 368.5 160 L 368.5 160"></path><path fill="none" class="highcharts-boxplot-whisker" stroke="#000000" stroke-width="1" d="M 364 151.5 L 373 151.5 M 364 160.5 L 373 160.5"></path><path fill="none" class="highcharts-boxplot-median" stroke="#000000" stroke-width="2" d="M 0 0"></path></g><g class="highcharts-point"><path fill="none" class="highcharts-boxplot-stem" stroke="#000000" stroke-width="1" d="M 403.5 205 L 403.5 184 M 403.5 205 L 403.5 205"></path><path fill="none" class="highcharts-boxplot-whisker" stroke="#000000" stroke-width="1" d="M 399 184.5 L 408 184.5 M 399 205.5 L 408 205.5"></path><path fill="none" class="highcharts-boxplot-median" stroke="#000000" stroke-width="2" d="M 0 0"></path></g></g><g class="highcharts-markers highcharts-series-3 highcharts-errorbar-series " transform="translate(81,53) scale(1 1)" clip-path="none"></g></g><text x="300" text-anchor="middle" class="highcharts-title" style="color:#333333;font-size:18px;fill:#333333;" y="24"><tspan>Temperature vs Rainfall</tspan></text><text x="300" text-anchor="middle" class="highcharts-subtitle" style="color:#666666;fill:#666666;" y="52"></text><g class="highcharts-legend" transform="translate(199,356)"><rect fill="none" class="highcharts-legend-box" rx="0" ry="0" x="0" y="0" width="202" height="29" visibility="visible"></rect><g><g><g class="highcharts-legend-item highcharts-column-series highcharts-color-0 highcharts-series-0" transform="translate(8,3)"><text x="21" style="color:#333333;font-size:12px;font-weight:bold;cursor:pointer;fill:#333333;" text-anchor="start" y="15"><tspan>Rainfall</tspan></text><rect x="2" y="4" width="12" height="12" fill="#7cb5ec" rx="6" ry="6" class="highcharts-point"></rect></g><g class="highcharts-legend-item highcharts-spline-series highcharts-color-1 highcharts-series-2" transform="translate(94.3125,3)"><path fill="none" d="M 0 11 L 16 11" class="highcharts-graph" stroke="#434348" stroke-width="2"></path><path fill="#434348" d="M 12 11 A 4 4 0 1 1 11.999998000000167 10.996000000666664 Z" class="highcharts-point"></path><text x="21" y="15" style="color:#333333;font-size:12px;font-weight:bold;cursor:pointer;fill:#333333;" text-anchor="start"><tspan>Temperature</tspan></text></g></g></g></g><g class="highcharts-axis-labels highcharts-xaxis-labels "><text x="98.54166666666333" style="color:#666666;cursor:default;font-size:11px;fill:#666666;" text-anchor="middle" transform="translate(0,0)" y="341" opacity="1">Jan</text><text x="133.62500000000335" style="color:#666666;cursor:default;font-size:11px;fill:#666666;" text-anchor="middle" transform="translate(0,0)" y="341" opacity="1">Feb</text><text x="168.70833333333334" style="color:#666666;cursor:default;font-size:11px;fill:#666666;" text-anchor="middle" transform="translate(0,0)" y="341" opacity="1">Mar</text><text x="203.79166666666333" style="color:#666666;cursor:default;font-size:11px;fill:#666666;" text-anchor="middle" transform="translate(0,0)" y="341" opacity="1">Apr</text><text x="238.87500000000333" style="color:#666666;cursor:default;font-size:11px;fill:#666666;" text-anchor="middle" transform="translate(0,0)" y="341" opacity="1">May</text><text x="273.9583333333333" style="color:#666666;cursor:default;font-size:11px;fill:#666666;" text-anchor="middle" transform="translate(0,0)" y="341" opacity="1">Jun</text><text x="309.04166666666333" style="color:#666666;cursor:default;font-size:11px;fill:#666666;" text-anchor="middle" transform="translate(0,0)" y="341" opacity="1">Jul</text><text x="344.1250000000033" style="color:#666666;cursor:default;font-size:11px;fill:#666666;" text-anchor="middle" transform="translate(0,0)" y="341" opacity="1">Aug</text><text x="379.2083333333333" style="color:#666666;cursor:default;font-size:11px;fill:#666666;" text-anchor="middle" transform="translate(0,0)" y="341" opacity="1">Sep</text><text x="414.29166666666333" style="color:#666666;cursor:default;font-size:11px;fill:#666666;" text-anchor="middle" transform="translate(0,0)" y="341" opacity="1">Oct</text><text x="449.3750000000033" style="color:#666666;cursor:default;font-size:11px;fill:#666666;" text-anchor="middle" transform="translate(0,0)" y="341" opacity="1">Nov</text><text x="484.4583333333333" style="color:#666666;cursor:default;font-size:11px;fill:#666666;" text-anchor="middle" transform="translate(0,0)" y="341" opacity="1">Dec</text></g><g class="highcharts-axis-labels highcharts-yaxis-labels "><text x="66" style="color:#434348;cursor:default;font-size:11px;fill:#434348;" text-anchor="end" transform="translate(0,0)" y="326" opacity="1"><tspan>0 °C</tspan></text><text x="66" style="color:#434348;cursor:default;font-size:11px;fill:#434348;" text-anchor="end" transform="translate(0,0)" y="259" opacity="1"><tspan>8 °C</tspan></text><text x="66" style="color:#434348;cursor:default;font-size:11px;fill:#434348;" text-anchor="end" transform="translate(0,0)" y="192" opacity="1"><tspan>16 °C</tspan></text><text x="66" style="color:#434348;cursor:default;font-size:11px;fill:#434348;" text-anchor="end" transform="translate(0,0)" y="124" opacity="1"><tspan>24 °C</tspan></text><text x="66" style="color:#434348;cursor:default;font-size:11px;fill:#434348;" text-anchor="end" transform="translate(0,0)" y="57" opacity="1"><tspan>32 °C</tspan></text></g><g class="highcharts-axis-labels highcharts-yaxis-labels "><text x="517" style="color:#7cb5ec;cursor:default;font-size:11px;fill:#7cb5ec;" text-anchor="start" transform="translate(0,0)" y="326" opacity="1"><tspan>0 mm</tspan></text><text x="517" style="color:#7cb5ec;cursor:default;font-size:11px;fill:#7cb5ec;" text-anchor="start" transform="translate(0,0)" y="259" opacity="1"><tspan>60 mm</tspan></text><text x="517" style="color:#7cb5ec;cursor:default;font-size:11px;fill:#7cb5ec;" text-anchor="start" transform="translate(0,0)" y="192" opacity="1"><tspan>120 mm</tspan></text><text x="517" style="color:#7cb5ec;cursor:default;font-size:11px;fill:#7cb5ec;" text-anchor="start" transform="translate(0,0)" y="124" opacity="1"><tspan>180 mm</tspan></text><text x="517" style="color:#7cb5ec;cursor:default;font-size:11px;fill:#7cb5ec;" text-anchor="start" transform="translate(0,0)" y="57" opacity="1"><tspan>240 mm</tspan></text></g><text x="590" class="highcharts-credits" text-anchor="end" style="cursor:pointer;color:#999999;font-size:9px;fill:#999999;" y="395">Highcharts.com</text></svg>